<svg id="Layer_1" data-name="Layer 1" xmlns="http://www.w3.org/2000/svg" viewBox="0 0 855.11 168.61"><defs><style>.cls-1{fill:#f0524b;}</style></defs><title>snapbuy-logo</title><path class="cls-1" d="M843.87,491.06q-5.1-5.18-14-5.18a21.69,21.69,0,0,0-17.25,7.79Q806,501.44,806,514.05c0,6,1.69,10.6,5.09,14s8.07,5.09,14,5.09a21.62,21.62,0,0,0,17.23-7.77q6.71-7.8,6.69-20.21Q849,496.27,843.87,491.06Zm-18.15-71.81L815.41,467a40.79,40.79,0,0,1,26.71-9.27A42.12,42.12,0,0,1,863,463.16,41.07,41.07,0,0,1,878.63,479q5.94,10.37,5.93,24.28a60.6,60.6,0,0,1-7.31,29.77,55,55,0,0,1-19.84,20.84,51.69,51.69,0,0,1-27.35,7.62q-23.34,0-32.07-16l-2.78,14.29H761.64l28.9-140.61h-43.2V587.86H997l15.2-24a23.09,23.09,0,0,0,15.58,5.76,14.75,14.75,0,0,0,8.15-2.15,24.94,24.94,0,0,0,6.67-7l-22.8-101.22h35l12.6,61.74,37.08-61.74H1139l-64.33,104.94q-8,12.78-15.3,19.93a47.12,47.12,0,0,1-4.18,3.67H1152V419.25ZM990.48,559.86H957.12l2-10.4a42.35,42.35,0,0,1-14.55,9.09,47.91,47.91,0,0,1-16.59,3q-16.53,0-26.24-8.91T892,527.22a60.59,60.59,0,0,1,1.31-12.43l11.11-55.43h35.23L929.3,511.47a33.39,33.39,0,0,0-.74,6.86q0,13.15,13.53,13.16a21,21,0,0,0,15-5.66c4-3.76,6.66-9.37,8.15-16.78l10-49.69h35.22ZM825.06,533.14a21.62,21.62,0,0,0,17.23-7.77q6.71-7.8,6.69-20.21,0-8.9-5.11-14.1t-14-5.18a21.69,21.69,0,0,0-17.25,7.79Q806,501.44,806,514.05c0,6,1.69,10.6,5.09,14S819.13,533.14,825.06,533.14Z" transform="translate(-296.89 -419.25)"/><path class="cls-1" d="M318.31,557.35q-13.63-4.54-21.42-11.77l6.86-14.47a56.73,56.73,0,0,0,19,10.85,69.79,69.79,0,0,0,23.82,4.17q16.14,0,24.1-5.47t8-14.55a14.36,14.36,0,0,0-4.36-10.85,29.16,29.16,0,0,0-10.75-6.39q-6.41-2.24-18.08-5a185.71,185.71,0,0,1-23.64-7.05A39,39,0,0,1,306.44,486q-6.39-7.32-6.39-19.75a33.43,33.43,0,0,1,5.46-18.72q5.48-8.34,16.6-13.35t27.62-5a87.25,87.25,0,0,1,22.62,3,60.22,60.22,0,0,1,19.1,8.53l-6.12,14.83a67.12,67.12,0,0,0-17.43-7.88,65.1,65.1,0,0,0-18.17-2.69q-15.75,0-23.64,5.75t-7.88,14.83a14.19,14.19,0,0,0,4.46,10.85,30.88,30.88,0,0,0,11,6.49,173,173,0,0,0,17.89,4.91,181.09,181.09,0,0,1,23.54,7,39.55,39.55,0,0,1,15.3,10.75q6.39,7.23,6.4,19.47a33.11,33.11,0,0,1-5.57,18.63q-5.55,8.43-16.87,13.35t-27.81,4.91A88.74,88.74,0,0,1,318.31,557.35Z" transform="translate(-296.89 -419.25)"/><path class="cls-1" d="M497.82,472.06q11,10.85,11,31.8v56.55H491.06V505.9q0-14.28-6.87-21.51t-19.65-7.23q-14.46,0-22.8,8.44t-8.35,24.19v50.62H415.6V462.14h17V477a34.62,34.62,0,0,1,14.56-11.68,50.84,50.84,0,0,1,20.85-4.08Q486.8,461.22,497.82,472.06Z" transform="translate(-296.89 -419.25)"/><path class="cls-1" d="M597.48,471.23q10.85,10,10.85,29.85v59.33H591.45v-13a28.13,28.13,0,0,1-12.7,10.48q-8.25,3.62-19.56,3.61-16.5,0-26.42-8a25.57,25.57,0,0,1-9.91-20.95q0-13,9.45-20.86t30-7.88h28.18v-3.52q0-11.5-6.68-17.62t-19.65-6.11a52.23,52.23,0,0,0-17.06,2.87,44.09,44.09,0,0,0-14.09,7.69l-7.41-13.35a54,54,0,0,1,18.17-9.36,76.08,76.08,0,0,1,22.43-3.24Q586.63,461.22,597.48,471.23Zm-17.71,72a26.08,26.08,0,0,0,10.76-12.89V516.65H563.09q-22.62,0-22.62,15.21a13.75,13.75,0,0,0,5.75,11.68q5.73,4.26,15.94,4.26A33,33,0,0,0,579.77,543.26Z" transform="translate(-296.89 -419.25)"/><path class="cls-1" d="M705.71,467.52a45.43,45.43,0,0,1,17.71,17.61q6.39,11.31,6.39,26.15t-6.39,26.23a45.22,45.22,0,0,1-17.71,17.71,51.67,51.67,0,0,1-25.58,6.3,45.53,45.53,0,0,1-19.38-4.08,40.31,40.31,0,0,1-14.92-11.86V586H628V462.14h17.05v15.58a37.85,37.85,0,0,1,15-12.33,47.44,47.44,0,0,1,20-4.17A51.67,51.67,0,0,1,705.71,467.52Zm-10.1,74.07a31.32,31.32,0,0,0,11.86-12.24,39.65,39.65,0,0,0,0-36.15,30.73,30.73,0,0,0-11.86-12.14,33.69,33.69,0,0,0-17-4.27,32.88,32.88,0,0,0-16.78,4.36A31.53,31.53,0,0,0,650,493.29a36.17,36.17,0,0,0-4.36,18,37.26,37.26,0,0,0,4.27,18.07,30.46,30.46,0,0,0,11.86,12.24,35,35,0,0,0,33.84,0Z" transform="translate(-296.89 -419.25)"/></svg>